/* XPM */
static char * numbers_xpm[] = {
"187 27 2 1",
" 	c None",
".	c #FFFFFF",
"                                                                                                                                                                                           ",
"   ...........     .......          ............     ............     ...       ...     ............     ............     ...........      ...........      ...........                ... ",
"  .           .   .       .        .            .   .            .   .   .     .   .   .            .   .            .   .           .    .           .    .           .               . . ",
" .  .........  .  . .....  .       . ..........  .  . ..........  .  . . .     . . .  .  .......... .  .  .......... .  .  .........  .  .  .........  .  .  .........  .             . .  ",
" . .         . .  .      . .       .           . .  .           . .  . . .     . . .  . .           .  . .           .  . .         . .  . .         . .  . .         . .             . .  ",
" . . ....... . .   ..... . .        .......... . .   .......... . .  . . .     . . .  . . ..........   . . ..........   . . ....... . .  . . ....... . .  . . ....... . .            . .   ",
" . . .     . . .       . . .                 . . .            . . .  . . .     . . .  . . .            . . .            . . .     . . .  . . .     . . .  . . .     . . .            . .   ",
" . . .     . . .       . . .                 . . .            . . .  . . .     . . .  . . .            . . .            . . .     . . .  . . .     . . .  . . .     . . .           . .    ",
" . . .     . . .       . . .                 . . .            . . .  . . .     . . .  . . .            . . .            . . .     . . .  . . .     . . .  . . .     . . .           . .    ",
" . . .     . . .       . . .                 . . .            . . .  . . .     . . .  . . .            . . .            . . .     . . .  . . .     . . .  . . .     . . .          . .     ",
" . . .     . . .       . . .                 . . .            . . .  . . .     . . .  . . .            . . .            . . .     . . .  . . .     . . .  . . .     . . .          . .     ",
" . . .     . . .       . . .         ......... . .    ......... . .  . . ....... . .  . . .........    . . .........    . . .     . . .  . . ....... . .  . . ....... . .         . .      ",
" . . .     . . .       . . .        .          . .   .          . .  . .         . .  . .          .   . .          .   . . .     . . .  . .         . .  . .         . .         . .      ",
" . . .     . . .       . . .       .  .........  .   . .........  .  .  .........  .  .  .........  .  .  .........  .  .   .     . . .  .  .........  .  .  .........  .        . .       ",
" . . .     . . .       . . .       . .          .    .          . .   .          . .   .          . .  . .         . .   ...      . . .  . .         . .   .          . .        . .       ",
" . . .     . . .       . . .       . . .........      ......... . .    ......... . .    ......... . .  . . ....... . .            . . .  . . ....... . .    ......... . .       . .        ",
" . . .     . . .       . . .       . . .                      . . .            . . .            . . .  . . .     . . .            . . .  . . .     . . .            . . .       . .        ",
" . . .     . . .       . . .       . . .                      . . .            . . .            . . .  . . .     . . .            . . .  . . .     . . .            . . .      . .         ",
" . . .     . . .       . . .       . . .                      . . .            . . .            . . .  . . .     . . .            . . .  . . .     . . .            . . .      . .         ",
" . . .     . . .       . . .       . . .                      . . .            . . .            . . .  . . .     . . .            . . .  . . .     . . .            . . .     . .          ",
" . . .     . . .       . . .       . . .                      . . .            . . .            . . .  . . .     . . .            . . .  . . .     . . .            . . .     . .          ",
" . . ....... . .   ..... . .....   . . ..........    .......... . .            . . .   .......... . .  . . ....... . .            . . .  . . ....... . .   .......... . .    . .           ",
" . .         . .  .      .      .  . .           .  .           . .            . . .  .           . .  . .         . .            . . .  . .         . .  .           . .    . .           ",
" .  .........  .  . ..... ..... .  .  .......... .  . ..........  .            . . .  . ..........  .  .  .........  .            . . .  .  .........  .  . ..........  .   . .            ",
"  .           .   .             .   .            .  .            .             .   .  .            .    .           .             .   .   .           .   .            .    . .            ",
"   ...........     .............     ............    ............               ...    ............      ...........               ...     ...........     ............     ..             ",
"                                                                                                                                                                                           "};
