/* XPM */
static char * numbers[] = {
"170 27 2 1",
" 	c None",
".	c #ffffff",
"                                                                                                                                                                          ",
"   ...........     .......          ............     ............     ...       ...     ............     ............     ...........      ...........      ...........   ",
"  .           .   .       .        .            .   .            .   .   .     .   .   .            .   .            .   .           .    .           .    .           .  ",
" .  .........  .  . .....  .       . ..........  .  . ..........  .  . . .     . . .  .  .......... .  .  .......... .  .  .........  .  .  .........  .  .  .........  . ",
" . .         . .  .      . .       .           . .  .           . .  . . .     . . .  . .           .  . .           .  . .         . .  . .         . .  . .         . . ",
" . . ....... . .   ..... . .        .......... . .   .......... . .  . . .     . . .  . . ..........   . . ..........   . . ....... . .  . . ....... . .  . . ....... . . ",
" . . .     . . .       . . .                 . . .            . . .  . . .     . . .  . . .            . . .            . . .     . . .  . . .     . . .  . . .     . . . ",
" . . .     . . .       . . .                 . . .            . . .  . . .     . . .  . . .            . . .            . . .     . . .  . . .     . . .  . . .     . . . ",
" . . .     . . .       . . .                 . . .            . . .  . . .     . . .  . . .            . . .            . . .     . . .  . . .     . . .  . . .     . . . ",
" . . .     . . .       . . .                 . . .            . . .  . . .     . . .  . . .            . . .            . . .     . . .  . . .     . . .  . . .     . . . ",
" . . .     . . .       . . .                 . . .            . . .  . . .     . . .  . . .            . . .            . . .     . . .  . . .     . . .  . . .     . . . ",
" . . .     . . .       . . .         ......... . .    ......... . .  . . ....... . .  . . .........    . . .........    . . .     . . .  . . ....... . .  . . ....... . . ",
" . . .     . . .       . . .        .          . .   .          . .  . .         . .  . .          .   . .          .   . . .     . . .  . .         . .  . .         . . ",
" . . .     . . .       . . .       .  .........  .   . .........  .  .  .........  .  .  .........  .  .  .........  .  .   .     . . .  .  .........  .  .  .........  . ",
" . . .     . . .       . . .       . .          .    .          . .   .          . .   .          . .  . .         . .   ...      . . .  . .         . .   .          . . ",
" . . .     . . .       . . .       . . .........      ......... . .    ......... . .    ......... . .  . . ....... . .            . . .  . . ....... . .    ......... . . ",
" . . .     . . .       . . .       . . .                      . . .            . . .            . . .  . . .     . . .            . . .  . . .     . . .            . . . ",
" . . .     . . .       . . .       . . .                      . . .            . . .            . . .  . . .     . . .            . . .  . . .     . . .            . . . ",
" . . .     . . .       . . .       . . .                      . . .            . . .            . . .  . . .     . . .            . . .  . . .     . . .            . . . ",
" . . .     . . .       . . .       . . .                      . . .            . . .            . . .  . . .     . . .            . . .  . . .     . . .            . . . ",
" . . .     . . .       . . .       . . .                      . . .            . . .            . . .  . . .     . . .            . . .  . . .     . . .            . . . ",
" . . ....... . .   ..... . .....   . . ..........    .......... . .            . . .   .......... . .  . . ....... . .            . . .  . . ....... . .   .......... . . ",
" . .         . .  .      .      .  . .           .  .           . .            . . .  .           . .  . .         . .            . . .  . .         . .  .           . . ",
" .  .........  .  . ..... ..... .  .  .......... .  . ..........  .            . . .  . ..........  .  .  .........  .            . . .  .  .........  .  . ..........  . ",
"  .           .   .             .   .            .  .            .             .   .  .            .    .           .             .   .   .           .   .            .  ",
"   ...........     .............     ............    ............               ...    ............      ...........               ...     ...........     ............   ",
"                                                                                                                                                                          "};
