/* XPM */
static char *spacewalls[] = {
/* columns rows colors chars-per-pixel */
"128 64 22 1 ",
"  c #1D231A",
". c #1C221B",
"X c #1D221B",
"o c #1C231B",
"O c #1D231B",
"+ c #202840",
"@ c #212840",
"# c #202940",
"$ c #212940",
"% c #202841",
"& c #212841",
"* c #202941",
"= c #2E3650",
"- c #2F3650",
"; c #2E3750",
": c #2E3651",
"> c #263E82",
", c #273E82",
"< c #273F82",
"1 c #263E83",
"2 c #273E83",
"3 c None",
/* pixels */
"3=,,,,,,,===,,,,,,,=========,,,,,,,,===,,,,,,,=33=,,,,,,,,,,,,=3++%+++++++++++++++++++++++++++++++++O+++++++++++++++++++++++++++",
"=,,,,,,,,,,,,,,,,,,,,,,,,,,,,,,,,,,,,,,,,,,,,,,==,,,,,,,,,,,,,,=+++++++++++++++++++++++++++++++++++++O+++++++++++++++++++%++++++",
",,,=====,+,2,=====,,,,++,,<,,======,+,,,=====,,,=,,=========,,,,++++++++OO++++++++++++++O+++++++++++OOO++++++++++++%++O+++++++++",
",,=======+,===-=======+,,===========+,========,,,,==========,,,,+++++++++O++++++++++++@++O++++++++++OOOO++++++++++@+++++++++++++",
",++==+++=====++++++====;=====++++++=====+++===,,,,==;=++++===,,,+++++++++++++++++++++++++++++++++++++++OX+++++++++++++++++#++++O",
",++,+++++++++++++++++++++++#+++++OO+++++++++==,,,,===++++++==,,=++++++++++++++++++OO+++++++++++++++++++#O+++++++++%+++++#+++++OO",
",,=,+++++++++++++++++++++++++++++O+++++++++%==<,,,,==++++++=++,=+++O++++++++++++++OO+++++++++++++++++++++O+++++++++++++++++++OOO",
",,===++++++XO+++++++++++++O+++++++++++++O++=:=,,=,,==+++O+==,+,=++O++++++++++++++++++++#++++++++++++++++++++++++++++++++++++OO++",
",,,==++@+++OO+++++++++++++++++++++++++++O++==,,2=,+,==+O++==,,,=++++++++++++OO+++++++++++++++O+++++++#++@+++++OOO++++++++O .O+++",
":,,==+++++++++++++++O+++++++%++++++++++++++==,,==,++==+++++==,,=++++++++++++O++++%+@++++++++OO+++#+++++++++++++++OOOOOOOOOO+++++",
"=,,==++++++++++++++++++++#++++++++++#++++++=++,==,,==++++++=-,,,++++++++++++++++++++++++++++++++++++++++++OO+++++++++OOOOo++++++",
"=,,==++O+++++++++++++++++++OO++++++++++++++=++,==,,==++++++==,,,++++++++%+++++++++++++++++++++++++++++++OO+++++++++++OOOO+++++++",
"=,,==+O++++++++++++++++++++O++++++++OO++@++=,,,=,,,==+++%++==,,,+++++OO+++++++====++++OO++++#+++++++++OO++++++++++++++OO++++++++",
",,,==++++++++O+%++++++++@+++++++++++OO+++++==,,,,,,=++++++O+==>,+++++OO++++++======++++O++++++++++@+++OO++++++++++++++OO++++++++",
",,==++++@++++OO++++++++%++++++++++++++++++++==,,,,==+++++OO+==,,++++++++++++===,,===++++++++++++++++++O+*++++O+++++++++O+#++++++",
",,==+++++#++++++++++++++++++++++++++++++++++;=>>,,==++++++++:=,,++++++++++#+==,,,,=;++++++++++++++++++O++++++++++++++++O++++++++",
",,==++++++++++++++O+++++++++++++++++++++++++==,,,2==++++++++==,,++++++++++++==,,,,==++++++++++%++++++OO+++++++++++++@@++++++++++",
",,==++++++++++++++OO++++++++++++++++++++++++==,,,,==++++++++==,,++++++++++++===,,-==+++++++++++++++++OO++++++++++++++%+%++++++++",
",<==+++++++++++++++OO++++++++++O+++++++#++++=,,,,,==++++++++=,,,++++++++O++++======++++++OO+++++++++OOO+++++++++++++O+++++++++++",
",,,==++++++O++++++++O+++++++++OO+++++++++++==,,=,,,==+++$++==,,=++#+++++OO++++====+++++++OO+++@+++++OOO++++%++++++++O+++++++++++",
"=,,==++++++OO++++++++++OOOOOOOO+++++++O++++==,,==,,==+O++++==,,=++++++++++++++++++++++++++++++++OOOOOOOO++++++%+++++O++++++++++O",
"=,,==+O+++++++++++++++++++OOOO+++++++++++++==,,==,,==++O+++==,,=+++++++++++++++++++++++++++++++++++OOOOO+++++++++++OO+++@++++OOO",
"=,,==++++++++++++++O+++++++OO++++++%++++++==++,==,,==+++++==++,=++OO+++++++++++++++O+++++++++++++++++OXOO++++++++OOO+++++++OO+++",
"=,,,=++++++++++++++O++%+++++O+%+++++++++++==,+,==,,,=%++++==,+,=++O+++++++@+++%++%OO+++++++++++++++++++OO+++++++OO++++++OOOO++++",
"=,+,==++#++++++++++O+++++++++++++++++++++++=,,,==,+,==+++++=,,,=+++++++++++++++++++++++++++%+O++++++++++OOOOOOOO++++++++++OO++++",
"=,++==++++++++++++OO+++++++++++++++++++#+++==,,:=,++==+++%+==,,=++++++++++++OO+++++++++#++++O+++++++++++OOOOOOO++++++++++++O++++",
"=,,==+%+++++++++OOOO++++++O++OoO+++@++++O++==,,==,,==++++++==,,=++++++++++++OO+++++++++++++++++++++++++++OOO++++++@++#+++++O++++",
"=>,==++++O+++++++OOOO++++O ++O+++++O ++++++==,,==,,==+++OO+-=,,=+++++++++++++++++++++++++++++++++++++++++OO++++++++O+++++++O++++",
"=2,==+++++O++++++++OOOOOOO++++++++++O++@+++==,,,=,,==+++OO+==,,,++++++O+++++++++++++++O++@++++++++++++++++O+++++++OO++++++++++++",
",,,=++++++++++++++++OOOO+++++++++++++++#++++==,,,,,=++++++++==,,+++++++O++++++++&+++++OO++++++++++++++++++O+++++++O+++++++++++++",
",,==+++++++@+++++++++O++++++++++++++++++++++==,,,,==+++++++%==,,++++%++++++++++++++++++++*+++#++++++++++++O+++++++++++++++++++++",
",,==++++++@++++++++++O++++++++++++++++@+++++==,,,,==++++++++==,,++++++++++++++++++++++++++++++++++++++++++++++++++++++++++++++++",
",,==++++++++++++++++++++++++++++++++++++++++==,,,,==++++++++==,,33333333333333=,,=3333333333333333333333333333333333333333333333",
",,==++O++++++++++++++++++++++++++OO+++++++++==,,,,==+++++%++==,,3333333333333,,,,,,333333333333333333333333333333333333333333333",
",,,==++O++++++++++++++++++++++++++O++++++++==,,,,,==@++++++#=>,,333333333333,,,==,,,33333333333333333333333333333333333333333333",
"=,,,=++++++OO+++++++O++@+++++++++++++++++O+==,,=,,,==+OO+++==,,=33333333333,,+,====,,3333333333333333333333333333333333333333333",
"=,,+=++++++OO++++++OO+++++++++++++++++++O++==,,==2,==++O+++==,,=3333333333,,=+,=====,,333333333333333333333333333333333333333333",
"=,++=+++++++%+#+++++++++++++++%++++++++++++==,,==,,==++++++==,,=333333333,,====++==++,,33333333333333333333333333333333333333333",
"=,,==+++++++++++++++++%++++O+++++++++++++++==,,==,,==+++++==++,=33333333,,==;++++++=,,,,3333333333333333333333333333333333333333",
",,,=;++O+++++++++++++++++++++++++++++OO++++==,,,=,,,:=++++==2+,=3333333=,,==++++++++==1>=333333333333333333333333333333333333333",
",,===++O++++++O++++++O++#++++++++++++OO++++===,,,,+,==++++%==,,=33333=,,,==++o+++++++==,,,=3333333333333333333333333333333333333",
",,==++++++++#OO+++++++++++++++++++++++++++++,=,,,,++=++++O+==,,,3333,,++,==+++O++++++===,,,,333333333333333333333333333333333333",
",,==+++++++++++++++++++++++++++++O++++++++++,++,,,,==++++++-==,,333,,,++,=++++++++O+++==++,,,33333333333333333333333333333333333",
",,===+++=====++++++==========++++++=,===+++==++,,,,===++++====,,333,,==,:+++++++++O++++==+2,,33333333333333333333333333333333333",
",,=,>=====,+===========,,+=========,++========,,=,,,==========,,33,,===+++OO+%+++++%+++%+===,,3333333333333333333333333333333333",
",,,,++==,,,+,====;=,,,,,++,,,,=====,++,,=====,,,=,,,======-==,,=3=,,==++++OO++++++++++O+++==,,=333333333333333333333333333333333",
"=,,,+,,,,,,,,,,,,,,,,,,,,,,,,,,,,,,>,,,,,,,,,,,=3=,,,,,,,,,,,,=3=,,===+++++++++++++++OO+++===,,=33333333333333333333333333333333",
"3=,,,<,,,===,,,,,,,,=========,,,,,>,===,,,,,,,=333=,,,,,,,,,,,33,,:==++++++++++++++++++++++===,,33333333333333333333333333333333",
"33==,,,====,,,,,,,,=========,,,,,,,======,,,,==33=,,,,,,,,,,,=33+++++++++++++++#333333333333333333333333333333333333333333333333",
"3=,,,,,,,,,,,,,,,,,,,,,,,,,,,>,,,2,,,,<,,,,,,,,==,,,,,2,,,,,,,=3++++++O+++++O+++333333333333333333333333333333333333333333333333",
"=,,,,,++,,,,,=====,,,,++<,,,,=-=:=,,,,++,,===,,,=,,=:=======,,,3++++++@O+++OO+++333333333333333333333333333333333333333333333333",
",,,,==+,,=============+,,=============+,======,2,,==========,,,=O++++++++++O++++333333333333333333333333333333333333333333333333",
",,===========++++++==========++++++===;=======,,,,====++++===,,,+O++++#+++++++++333333333333333333333333333333333333333333333333",
",,===++==+++++++++++++==+++++#++++++++==+++===,,=,===++++++=;,,,++OOOO+++%+@++++333333333333333333333333333333333333333333333333",
",,:=++++++++O++++++++++++++O+++++++++++++++#==,,=,===++++++=++,,+%+OO+++++++++++333333333333333333333333333333333333333333333333",
",,==+#+++#+OO+++++++++++++O++++++++++++O++++==,,=,,==+++O+==,+,=+++O+++++%+++++@333333333333333333333333333333333333333333333333",
",,==+++++++++++++++OO++++++++++++++#+++%O%++==,,=,+,==+O++===,,=++++++++++++++#@333333333333333333333333333333333333333333333333",
",,==++O++++++++@%++OO++++++++++++O++++++++++==,>,,%+=++++O+===,=+++++++++++++O++333333333333333333333333333333333333333333333333",
",,===+++==+++++++++@++++==+++++++OO++++==++===,,,,,==++@+++===,,OO+++++++++++OoO333333333333333333333333333333333333333333333333",
",,===========++++++==========++++++===========,,,,,=;=++++====,,+OO+++++++++OOO+333333333333333333333333333333333333333333333333",
",,======,+=============,,+=============>,+==,,,,=,,===========,,++O+++++%++OO+++333333333333333333333333333333333333333333333333",
",,,===,,++,,,,=====,,,,,++,,,,=====,,,,,++,,,,,==,<,=-=====-=>,=++++++++OOOO++++333333333333333333333333333333333333333333333333",
"=,,,,,,,,>,,,,,,,,,,2,,,,,,,,,,,,,,,,,,,,,,,,,=33=,,,,,,,,,,,,,=++++++++++O+++++333333333333333333333333333333333333333333333333",
"3==,,,,======,,,,,,,=========,,,,,,,=====,,,==3333=,,,,,,,,,,,=3++++++++++O+++++333333333333333333333333333333333333333333333333"
};
